<svg version="1.2" xmlns="http://www.w3.org/2000/svg" viewBox="0 0 200 200" width="200" height="200"><style>.a{fill:#0f8749}.b{fill:#9cc73e}</style><path class="a" d="m149.9 149.4c-16.9 29.3-54.3 39.3-83.5 22.4-9.6-5.5-17.1-13.3-22.3-22.2 10.3-7.6 24.5-8.8 36.2-2 15.9 9.2 36.2 3.7 45.4-12.1 9.1-15.9 3.7-36.2-12.2-45.4-11.7-6.8-17.8-19.7-16.4-32.4 10.4 0 20.8 2.7 30.4 8.2 29.2 16.9 39.2 54.3 22.4 83.5z"/><path class="b" d="m50.1 50.3c-16.9 29.2-6.9 66.6 22.3 83.5 9.6 5.5 20.1 8.1 30.4 8.2 1.4-12.7-4.6-25.6-16.4-32.4-15.8-9.2-21.3-29.5-12.1-45.4 9.1-15.8 29.4-21.3 45.3-12.1 11.8 6.8 26 5.5 36.3-2-5.2-8.9-12.7-16.7-22.3-22.2-29.3-16.9-66.6-6.9-83.5 22.4z"/></svg>